<?xml version="1.0" standalone="no"?><!DOCTYPE svg PUBLIC "-//W3C//DTD SVG 1.1//EN" "http://www.w3.org/Graphics/SVG/1.1/DTD/svg11.dtd"><svg class="icon" width="200px" height="200.00px" viewBox="0 0 1024 1024" version="1.1" xmlns="http://www.w3.org/2000/svg"><path fill="#333333" d="M170.666667 768h597.333333a42.666667 42.666667 0 0 1 0 85.333333H128a42.666667 42.666667 0 0 1-42.666667-42.666666V213.333333a42.666667 42.666667 0 0 1 42.666667-42.666666h768a42.666667 42.666667 0 0 1 42.666667 42.666666v597.333334a42.666667 42.666667 0 0 1-85.333334 0V256H170.666667v512z m234.069333-347.434667a42.666667 42.666667 0 1 1 43.861333-73.130666l213.333334 128a42.666667 42.666667 0 0 1 0 73.130666l-213.333334 128A42.666667 42.666667 0 0 1 384 640v-128a42.666667 42.666667 0 0 1 85.333333 0v52.650667L557.056 512l-152.32-91.434667z" /></svg>